<svg xmlns="http://www.w3.org/2000/svg" viewBox="0 0 64 64" role="img" aria-label="SA">
  <rect width="64" height="64" rx="16" fill="#fcfbf8"/>
  <path d="M19 22c0-4.418 3.582-8 8-8h10c4.418 0 8 3.582 8 8v2h-7v-1.2c0-1.546-1.254-2.8-2.8-2.8h-6.4c-1.546 0-2.8 1.254-2.8 2.8 0 1.211.78 2.286 1.929 2.66l11.642 3.79C43.372 30.386 46 33.978 46 38.019 46 43.53 41.53 48 36.019 48H27.98C22.47 48 18 43.53 18 38.019V36h7v1.2c0 2.099 1.701 3.8 3.8 3.8h6.4c2.099 0 3.8-1.701 3.8-3.8 0-1.642-1.057-3.098-2.618-3.606l-11.642-3.79C21.624 29.13 19 25.819 19 22Z" fill="#181716"/>
</svg>
